<svg fill="#000000" viewBox="-4 -4 40 40" version="1.1" xmlns="http://www.w3.org/2000/svg">
  <!-- Box part from share.svg -->
  <path d="M0 25.472q0 2.368 1.664 4.032t4.032 1.664h18.944q2.336 0 4-1.664t1.664-4.032v-8.192l-3.776 3.168v5.024q0 0.8-0.544 1.344t-1.344 0.576h-18.944q-0.8 0-1.344-0.576t-0.544-1.344v-18.944q0-0.768 0.544-1.344t1.344-0.544h9.472v-3.776h-9.472q-2.368 0-4.032 1.664t-1.664 4v18.944z" />
  
  <g transform="translate(15, 0) scale(0.0155)">
    <!-- Thick Warning Triangle border -->
    <path stroke="#000000" stroke-width="120" stroke-linejoin="round" d="M520.741 163.801a10.234 10.234 0 00-3.406-3.406c-4.827-2.946-11.129-1.421-14.075 3.406L80.258 856.874a10.236 10.236 0 00-1.499 5.335c0 5.655 4.585 10.24 10.24 10.24h846.004c1.882 0 3.728-.519 5.335-1.499 4.827-2.946 6.352-9.248 3.406-14.075L520.742 163.802zm43.703-26.674L987.446 830.2c17.678 28.964 8.528 66.774-20.436 84.452a61.445 61.445 0 01-32.008 8.996H88.998c-33.932 0-61.44-27.508-61.44-61.44a61.445 61.445 0 018.996-32.008l423.002-693.073c17.678-28.964 55.488-38.113 84.452-20.436a61.438 61.438 0 0120.436 20.436z" />
    <!-- Default Exclamation Sign (no extra stroke) -->
    <path d="M512 778.24c22.622 0 40.96-18.338 40.96-40.96s-18.338-40.96-40.96-40.96-40.96 18.338-40.96 40.96 18.338 40.96 40.96 40.96zm0-440.32c-22.622 0-40.96 18.338-40.96 40.96v225.28c0 22.622 18.338 40.96 40.96 40.96s40.96-18.338 40.96-40.96V378.88c0-22.622-18.338-40.96-40.96-40.96z" />
  </g>
</svg>